<?xml version="1.0" encoding="UTF-8"?>
<svg overflow="visible" baseProfile="tiny" version="1.2" viewBox="0 0 530.5 437.7" xml:space="preserve" xmlns="http://www.w3.org/2000/svg">
<path d="m58.9 2.4h12.5v67c-0.8 0-1.6 0.1-2.4 0.1h-9.3v-47.1c-0.2-0.1-0.3-0.1-0.5-0.2-6.9 10.2-13.7 20.5-20.8 31-7.1-10.4-13.8-20.6-20.9-30.6-0.4 3.1-0.3 6.2-0.3 9.3v9.4 9.4 9.4 9.4h-11.6v-67h6.1 6.4c6.7 10.4 13.5 20.9 20.4 31.7 6.9-11 13.6-21.3 20.4-31.8z"/>
<path d="m134.3 40c0.7-5-1.6-8.9-6.3-10.5-4.2-1.4-8.5-1.1-12.8-0.1-2.5 0.6-4.9 1.4-7.7 2.3-1-3-2-6.1-3.1-9.2 3.4-1.8 6.8-2.9 10.3-3.6 5.7-1.1 11.4-1.3 17.1 0.1 7.6 1.8 11.9 6.7 13.5 14.2 0.4 1.7 0.6 3.5 0.6 5.2 0.1 9.8 0 19.7 0 29.5 0 0.4-0.1 0.8-0.1 1.3h-11.4v-5.6c-0.8 0.6-1.3 1-1.8 1.4-6.9 6-14.8 6.8-23.1 3.8-6.1-2.2-9.6-7.5-9.6-13.8-0.1-7 3.1-12.1 9.4-14.8 5.3-2.2 10.9-2.4 16.5-1.8 2.9 0.4 5.7 1.1 8.5 1.6zm0.3 7.9c-5.3-1.8-10.6-2.6-16-1.5-1.4 0.3-2.7 0.9-3.9 1.7-4 2.4-4.5 9.8 0.7 12.3 2.5 1.2 5 1.5 7.7 1.3 6.1-0.7 12.9-4 11.5-13.8z"/>
<path d="m320.5 48.4h-18.7-18.2c0.2 6.2 5.3 11.7 11.7 12.5 5.3 0.7 10-0.5 14.1-3.9 0.7-0.6 1.3-1.1 2.2-1.9 2.2 2 4.5 4 6.8 6.1-3.3 3.9-7.1 6.8-11.7 8.3-7 2.2-14.1 2-20.8-1.2-8.6-4.2-13.1-11.2-14.1-20.5-0.6-5.4 0.1-10.7 2.5-15.7 5.2-11 16.8-17 29.9-13.1 6.8 2 11.3 6.7 14 13.2 2.1 4.9 2.9 10.2 2.3 16.2zm-37.1-7.9h25.6c-0.4-8-6-13.4-12.7-13.3-7 0.1-12.6 5.8-12.9 13.3z"/>
<path d="m187.2 69.3h-11.6v-50.3h11.5v9.6c0.1 0.1 0.3 0.1 0.4 0.2 0.4-0.7 0.8-1.4 1.3-2.1 2.5-4 5.7-7.1 10.4-8.3 1.8-0.4 3.6-0.5 5.6-0.8v12.3c-1.5 0.2-3 0.3-4.4 0.6-5.2 1-9 3.9-11.2 8.8-1.5 3.2-2 6.5-2 10v17.5 2.5z"/>
<path d="m232 69.3v-50.3h11.4v50.3h-11.4z"/>
<path d="m243.9 10.8h-12.4v-10.8h12.3c0 1.8 0.1 3.5 0.1 5.3v5.5z"/>
<path d="m55.3 136.3v10.4c-3.1 0.1-6.2 0-9.2 0.1h-9.6-9.4-9.3c-0.5 1.8-0.6 14.4-0.2 17.5h33.3v10.5h-33.1c-0.6 1.9-0.7 14.9-0.2 18h38.1c0 1.9 0.1 3.6 0.1 5.3v5.1h-50c-0.4-1.7-0.6-63.9-0.1-66.9h49.6z"/>
<path d="m133 203.2h-11.4v-7.1c-0.1-0.1-0.3-0.1-0.4-0.2-0.5 0.5-1.1 1-1.6 1.6-3.3 3.5-7.2 6.2-12.1 6.7-8.7 0.9-16-1.8-21.3-8.8-4.9-6.4-6.1-13.8-5.3-21.6 0.5-4.7 2.1-9 4.9-12.8 5.5-7.7 15.5-11.2 24.7-8.6 3.5 1 6.3 3.1 8.9 5.5 0.6 0.5 0.9 1.3 1.8 1.7 0.5-3 0.4-5.8 0.4-8.6v-8.6-8.9c2 0 3.9-0.1 5.8-0.1h5.4c0.5 1.7 0.7 65.7 0.2 69.8zm-11.3-25.3c0.1-4.1-1-7.8-3.5-11-6.3-8.2-18.6-7.2-23.5 1.9-2.9 5.5-3 11.2-0.6 16.9 2.2 5.2 6.2 8.3 11.9 8.6 5.8 0.4 10.2-2.2 13.2-7.1 1.8-2.8 2.5-6 2.5-9.3z"/>
<path d="m262.4 133.4h11.3v26.7c0.9-1 1.4-1.5 1.9-2.1 6.2-7.4 15.8-7.8 22.5-4.7 5.4 2.5 8.1 7.1 9.1 12.7 0.3 1.7 0.5 3.5 0.5 5.2v30.2c0 0.5-0.1 1.1-0.1 1.8h-11.6v-2.5-24.7c0-1.4-0.1-2.7-0.2-4.1-0.6-5.8-4.2-9.4-9.7-9.8-6-0.4-10.7 3-11.9 8.5-0.3 1.5-0.4 3-0.5 4.5v25.2 2.8h-11.3c-0.4-1.6-0.5-66.2 0-69.7z"/>
<path d="m234.5 162.5h-13.3c-0.1 0.6-0.2 1.2-0.2 1.7v23c0 4.5 2.1 6.5 6.5 6.4 2.2-0.1 4.4-0.7 6.9-1.1 0.1 2.9 0 6 0 9.1-0.8 0.4-1.6 0.8-2.4 1.1-3.7 1.6-7.6 1.8-11.5 1.2-6.9-1.1-10.5-5.1-11-12.1-0.1-1.1-0.1-2.2-0.1-3.4v-23-2.9h-6.3v-9.9h6.2v-13.9c4-0.1 7.7-0.1 11.6 0v13.8h13.6v10z"/>
<path d="m175.7 203.2h-11.3v-50.4h11.3v50.4z"/>
<path d="m349.4 203.2h-12.6v-12.9h12.6v12.9z"/>
<path d="m176.1 144.7h-12.2v-10.8h12.2v10.8z"/>
<path d="m5.6 337.1v-67c0.6-0.1 1.2-0.1 1.7-0.1h29.5c3.5 0 6.8 0.6 10.1 1.8 9.3 3.3 14 10.9 13.5 20.6-0.4 9.3-5.2 15.5-13.9 18.8-0.6 0.2-1.2 0.4-2 0.8 6 8.3 11.8 16.5 17.9 25-1 0.1-1.6 0.1-2.2 0.1-3.1 0-6.2-0.1-9.4 0-1.7 0.1-2.8-0.5-3.7-1.9-4.5-6.5-9.2-12.9-13.7-19.4-1-1.5-2.1-2.1-3.9-2-3.2 0.2-6.4 0-9.6 0h-2.6v23.2c-3.9 0.2-7.7 0.1-11.7 0.1zm11.8-34.1c0.2 0.1 0.4 0.3 0.5 0.3 6.7-0.1 13.4 0 20.1-0.3 2.6-0.1 4.9-1.4 6.9-3.1 4.9-4 5.2-15.3-3.3-18.1-2.1-0.7-4.3-1.1-6.5-1.2-5.4-0.2-10.9-0.1-16.3-0.1-0.5 0-0.9 0.1-1.4 0.2v22.3z"/>
<path d="m178.9 337.1h-11.4v-69.8h11.6v26.8c0.7-0.7 1.1-0.9 1.3-1.2 9.8-12 27.3-8.4 34.5 2.2 4.1 6 5.5 12.7 4.8 19.8-0.6 6.7-2.9 12.6-7.9 17.2-6.5 5.9-14.1 7.4-22.5 5.1-3.6-1-6.3-3.4-8.8-6-0.3-0.3-0.5-0.6-0.9-1.3-0.9 2.5-0.3 4.7-0.7 7.2zm29-25.3c0-3.8-0.9-7.1-2.7-10-4.8-7.7-15.4-8.8-21.7-2.3-6.2 6.3-6.4 17.5-0.6 24.1 6.6 7.4 18.2 6 22.9-2.7 1.5-2.9 2.1-5.9 2.1-9.1z"/>
<path d="m450.9 316c0.1 5 3.5 9.8 8.3 11.6 5.1 1.9 10.2 1.6 15-1.3 1.6-1 3.1-2.2 4.8-3.5 2.1 1.9 4.3 3.8 6.7 5.9-1.8 2.4-4.1 4.2-6.5 5.8-11.6 7.7-34.8 5.1-39.5-15.9-2.5-11.1 0.3-21 9.4-28.4 10.1-8.2 29.3-7 36.2 8.9 1.5 3.4 2.4 7 2.6 10.7 0.1 2 0 4 0 6.3-12.5-0.1-24.8-0.1-37-0.1zm25.3-7.7c-0.6-9.3-7.1-13.4-12.6-13.3-7 0-12.7 5.8-13 13.3h25.6z"/>
<path d="m85.9 312.1c-0.3-14.2 11.3-26.8 26.8-26.8 15.6 0 27.2 11.3 27.3 26.4 0 15-11.9 26.6-27.2 26.6-16.4 0.1-27.3-12.9-26.9-26.2zm11.6-1.6c-0.1 4.7 0.8 8.1 2.8 11.1 3.4 5.1 8.3 7.4 14.4 6.8 6-0.6 10.1-4 12.3-9.6 1.4-3.7 1.6-7.5 0.6-11.3-2.6-10.3-13.8-15.2-22.6-10-5.2 3.2-7.3 8.2-7.5 13z"/>
<path d="m291.2 286.7h11.2v7.1c0.8-0.8 1.3-1.2 1.6-1.7 5.5-6.9 13.7-8.3 21.2-5.8 6.3 2.1 9.5 7 10.7 13.3 0.3 1.8 0.5 3.7 0.5 5.5v30c0 0.5 0 1.1-0.1 1.8h-11.5c0-0.8-0.1-1.6-0.1-2.5v-24.7c0-1.4 0-2.9-0.2-4.3-0.9-7.2-6-10.3-12.5-9.4-5.6 0.8-9.1 5-9.5 11.2-0.1 1 0 2.1 0 3.1v23.7 2.8h-11.3c-0.4-1.5-0.5-47.5 0-50.1z"/>
<path d="m411.8 337.1h-11.5c0-0.9-0.1-1.7-0.1-2.6v-24.9c0-1.9-0.1-3.9-0.5-5.7-1.1-4.8-4.3-7.5-9-7.9-5-0.4-9.3 1.8-11.3 6-1 2.1-1.3 4.4-1.3 6.8v26.1 2.1h-11.3c-0.5-1.7-0.6-47.6-0.1-50.3h11.2v7.1c0.8-0.8 1.3-1.2 1.6-1.7 5.4-6.4 12.3-8.1 20.1-6.1 7 1.8 10.5 6.9 11.9 13.7 0.3 1.7 0.5 3.5 0.5 5.2v30.5c-0.1 0.5-0.2 1-0.2 1.7z"/>
<path d="m248.3 286.7h11.3v50.3h-11.3v-50.3z"/>
<path d="m513.9 324.1c0.4 0 0.9-0.1 1.3-0.1h10.7c0.6 1.9 0.7 10.4 0.2 13.1h-12.1c-0.5-1.8-0.6-10.3-0.1-13z"/>
<path d="m247.9 267.7h12.2v10.9h-6.1-6.1v-10.9z"/>
<path d="m42.1 432.7h-3.5c-1.7-3.8-3.5-7.6-5.3-11.5h-24.7c-1.7 3.7-3.5 7.5-5.3 11.5h-3.3c6.5-14.1 12.9-28 19.4-41.9h3.2c6.5 13.9 12.9 27.8 19.5 41.9zm-10.2-14.6c-3.6-8-7.2-15.8-10.9-24.1-3.8 8.2-7.3 16-11 24.1h21.9z"/>
<path d="m212 418.8h-25.1c0.5 4.8 2.5 8.6 6.7 10.6 6 2.9 11.2 1.1 15.7-3.4 0.7 0.6 1.3 1.1 2.1 1.7-3.1 3.3-6.5 5.5-11 5.9-9.9 0.8-16.3-6.4-16.7-14.9-0.2-4.4 0.8-8.4 3.5-11.9 6.7-8.5 19.4-6.8 23.6 3.2 1.3 2.9 1.6 5.5 1.2 8.8zm-3.2-3c0-5.9-4.3-11.7-11.2-11.4-5.8 0.2-10.9 5.7-10.5 11.4h21.7z"/>
<path d="m124.1 429.1c0.6-0.9 1.1-1.5 1.7-2.3 0.7 0.4 1.4 0.8 2 1.2 2.9 1.8 6.1 2.8 9.5 2.7 1.9-0.1 3.6-0.6 5.1-1.9 2.5-2.2 2.4-5.7-0.3-7.6-0.9-0.6-1.9-1.1-3-1.5-2-0.7-4.1-1.3-6.2-1.9-1.1-0.4-2.3-0.8-3.3-1.3-5.8-2.8-4.7-9.6-1.3-12.2 1.3-1 3-1.9 4.7-2.3 3.6-0.9 9.3 0 13.5 3.2l-0.6 1.2c-0.2 0.3-0.5 0.6-0.8 1.1-0.7-0.4-1.4-0.7-2.1-1-2.7-1.4-5.5-2.1-8.6-1.7-1.2 0.1-2.4 0.5-3.4 1.1-2.8 1.6-3.5 5.8 0.1 7.8 1.7 0.9 3.7 1.5 5.6 2.2 1.8 0.6 3.7 1.1 5.4 1.9 3 1.3 5.1 3.3 5.1 6.8 0 3.8-1.8 6.4-5.1 8-2 1-4.1 1.2-6.3 1.1-4.3-0.3-8.1-1.9-11.7-4.6z"/>
<path d="m96.4 402.2v2.9h-10.5c-0.1 0.9-0.2 1.6-0.2 2.3v15.8c0 0.8 0 1.6 0.1 2.4 0.4 3.1 1.9 4.6 5 4.8 1.7 0.1 3.5-0.2 5.4-0.3 0 0.6 0.1 1.4 0.1 2.4-3.4 1.4-6.7 1.6-9.9-0.1-2.7-1.5-3.6-4.1-3.7-7.1v-17.2-2.6c-1.5-0.1-2.8-0.2-4.2-0.2-0.1-0.8-0.1-1.6-0.2-2.6 1.5-0.1 2.8-0.2 4.3-0.3v-9.3c1.1-0.1 1.9-0.1 3-0.2v9.5c3.7-0.2 7.2-0.2 10.8-0.2z"/>
<path d="m161 405.2c-1.6-0.1-2.9-0.2-4.3-0.3 0-0.8-0.1-1.5-0.1-2.5 1.5-0.1 2.8-0.3 4.4-0.4v-9.2h2.8v9.4h10.8v2.9h-10.3c-0.1 0.8-0.3 1.3-0.3 1.8v16.8 1c0.3 4.3 2.1 6 6.4 5.8 1.3 0 2.5-0.3 4-0.5v2.5c-2.7 1.3-5.6 1.4-8.4 0.5-3.2-1-5-3.8-5-7.7v-17.2-2.9z"/>
<path d="m56.6 432.6h-2.6v-30.5c0.8 0 1.6-0.1 2.7-0.1v7.4c0.1 0.1 0.3 0.2 0.4 0.3 2.9-4.9 6.9-8.1 13-8.2v3.2l-1.5 0.3c-6 0.9-10.1 4.8-11.3 10.8-0.4 1.8-0.4 3.6-0.5 5.5-0.1 3.3 0 6.5 0 9.8-0.1 0.5-0.2 0.9-0.2 1.5z"/>
<path d="m109.1 402.3h2.3c0.5 1.8 0.7 24.2 0.3 30.4-0.8 0.1-1.6 0.1-2.6 0.2v-30.6z"/>
<path d="m108.7 390.3h3.4v3.7h-3.4v-3.7z"/>
</svg>
